<svg width="500" height="500" viewBox="0 0 132.292 132.292" xmlns="http://www.w3.org/2000/svg">
    <path d="M66.144 1.038L117.87 101.22l-51.726 30.25-51.723-30.25z" fill="#8de6ff" stroke="#000" stroke-width="1.921" stroke-linecap="round" stroke-linejoin="bevel"/>
    <path d="M66.103 95.507q-6.43 0-10.084-3.173-3.626-3.172-3.626-8.98 0-4.504 2.266-7.365 2.238-2.833 6.487-3.767-1.728-.425-3.201-1.303-1.473-.879-2.493-2.153-1.076-1.332-1.586-2.918-.482-1.587-.482-3.371 0-4.901 3.428-7.904 1.671-1.444 3.966-2.181 2.323-.765 5.354-.765 5.92 0 9.348 2.946 3.428 2.918 3.428 7.932 0 3.74-2.04 6.26-2.011 2.493-5.722 3.457 4.277.934 6.515 3.767 2.238 2.833 2.238 7.309 0 2.974-.963 5.24-.935 2.238-2.691 3.768-3.683 3.201-10.142 3.201zm.029-25.41q3.456 0 5.269-1.785 1.813-1.784 1.813-5.184 0-3.456-1.785-5.269-1.813-1.813-5.297-1.813-3.428 0-5.241 1.813-1.813 1.813-1.813 5.27 0 3.399 1.813 5.183 1.813 1.785 5.24 1.785zm.085 20.934q3.767 0 5.835-2.153 2.096-2.18 2.096-6.033 0-2.097-.566-3.598-.538-1.501-1.53-2.493-2.124-2.153-5.92-2.153t-5.893 2.125q-2.096 2.153-2.096 6.034 0 3.909 2.096 6.09 2.153 2.181 5.978 2.181z" aria-label="8" font-size="58.016" font-family="Hack" stroke-width=".453"/>
</svg>
