<svg width="500" height="500" viewBox="0 0 132.292 132.292" xmlns="http://www.w3.org/2000/svg">
    <path d="M66.144 1.038L117.87 101.22l-51.726 30.25-51.723-30.25z" fill="#8de6ff" stroke="#000" stroke-width="1.921" stroke-linecap="round" stroke-linejoin="bevel"/>
    <g font-size="58.016" font-family="Hack">
        <path d="M40.318 89.87h8.895V59.53l-6.743 7.678-3.116-3.796 9.802-11.02h5.722V89.87h8.782v4.816H40.318zM79.227 95.507q-6.8 0-10.227-5.552-3.456-5.58-3.456-16.374 0-10.821 3.456-16.402 3.428-5.552 10.227-5.552 6.798 0 10.254 5.552 1.7 2.72 2.578 6.8.878 4.05.878 9.602 0 5.553-.878 9.604-.878 4.05-2.578 6.77-3.484 5.552-10.254 5.552zm0-4.532q4.05 0 6.005-4.306 1.955-4.278 1.955-13.088 0-8.838-1.955-13.087-1.955-4.334-6.005-4.334-3.995 0-5.95 4.305-.99 2.125-1.5 5.354-.482 3.202-.482 7.762 0 8.867 1.983 13.088 1.983 4.306 5.949 4.306zm.056-7.507q-.906 0-1.416-1.218-.482-1.218-.822-2.861-.283-1.304-.481-3.145-.17-1.841-.17-2.804 0-.68.113-2.437.113-1.756.453-3.314.822-4.05 2.21-4.05.793 0 1.331 1.076.567 1.076.963 3.06.284 1.415.454 3.172.17 1.756.17 2.72 0 .566-.114 2.237-.085 1.672-.368 3.428-.708 4.136-2.323 4.136z" style="-inkscape-font-specification:Hack"/>
    </g>
</svg>
