<svg width="500" height="500" viewBox="0 0 132.292 132.292" xmlns="http://www.w3.org/2000/svg">
    <path d="M66.144 1.038L117.87 101.22l-51.726 30.25-51.723-30.25z" fill="#8de6ff" stroke="#000" stroke-width="1.921" stroke-linecap="round" stroke-linejoin="bevel"/>
    <path d="M64.616 95.507q-1.36 0-2.861-.141-1.473-.114-3.003-.397-1.303-.227-2.86-.623-1.559-.397-3.089-.935v-5.779q1.445.737 2.833 1.331 1.388.595 2.861.992 1.417.368 2.776.566 1.388.17 2.805.17 4.73 0 7.224-2.124 2.52-2.153 2.52-6.034 0-3.796-2.492-5.949-2.493-2.153-6.856-2.153h-4.362V69.73h4.362q3.995 0 6.176-1.728 2.181-1.7 2.181-4.901 0-3.201-2.04-4.93-1.982-1.727-5.948-1.727-2.351 0-5.128.566-2.72.539-5.637 1.7V53.44q3.456-.906 6.119-1.36 2.521-.453 4.787-.453 2.975 0 5.468.765 2.52.765 4.39 2.323 3.655 3.031 3.655 8.187 0 1.841-.51 3.286-.482 1.444-1.416 2.578-1.927 2.294-5.666 3.286 4.164 1.104 6.374 3.909 1.161 1.473 1.671 3.258.538 1.784.538 3.824 0 5.779-3.88 9.121-1.927 1.644-4.675 2.493-2.72.85-6.317.85z" aria-label="3" font-size="58.016" font-family="Hack" stroke-width=".453"/>
</svg>
