<svg width="500" height="500" viewBox="0 0 132.292 132.292" xmlns="http://www.w3.org/2000/svg">
    <path d="M66.144 1.038L117.87 101.22l-51.726 30.25-51.723-30.25z" fill="#8de6ff" stroke="#000" stroke-width="1.921" stroke-linecap="round" stroke-linejoin="bevel"/>
    <path d="M63.809 95.507q-1.048 0-2.153-.113-1.077-.085-2.068-.312-1.87-.396-4.051-1.274v-5.27q1.785 1.049 3.796 1.587 2.096.566 4.164.566 5.467 0 8.272-4.107 2.776-4.136 2.776-12.04-.651 1.445-1.643 2.55-.991 1.105-2.096 1.813-2.351 1.501-5.836 1.501-5.779 0-9.15-3.767-3.37-3.796-3.37-10.567 0-3.342.82-6.062.85-2.748 2.635-4.674 3.371-3.71 9.773-3.71 3.881 0 6.46 1.387 2.577 1.36 4.248 3.938 1.813 2.833 2.635 6.884.821 4.05.821 9.15 0 5.608-.991 9.83-.963 4.22-3.088 7.081-4.164 5.61-11.954 5.61zm1.841-19.574q1.983 0 3.428-.68 1.445-.709 2.408-1.927 2.068-2.606 2.068-7.308 0-4.703-2.068-7.309-.963-1.218-2.408-1.898-1.445-.708-3.428-.708-1.756 0-3.201.595t-2.436 1.898q-1.926 2.521-1.926 7.422 0 4.9 1.926 7.422 1.87 2.493 5.637 2.493zM86.47 95.45q-1.926 0-3.258-1.33-1.331-1.332-1.331-3.457 0-2.124 1.331-3.456 1.332-1.331 3.258-1.331t3.258 1.331q1.331 1.332 1.331 3.456 0 2.125-1.331 3.456-1.332 1.332-3.258 1.332z" style="-inkscape-font-specification:Hack" font-size="58.016" font-family="Hack"/>
</svg>
