<svg width="500" height="500" viewBox="0 0 132.292 132.292" xmlns="http://www.w3.org/2000/svg">
    <g color="#000">
        <path style="-inkscape-stroke:none" d="M66.144 1.038L117.87 101.22l-51.726 30.25-51.723-30.25z" fill="#8de6ff"/>
        <path style="-inkscape-stroke:none" d="M65.291.598L13.568 100.779l.368 1.27 51.724 30.25h.969l51.726-30.25.37-1.27L66.998.598zm.854 2.533l50.455 97.72-50.455 29.506-50.452-29.505z"/>
    </g>
    <path d="M53.3 90.89q0-1.048.707-1.757 1.615-1.7 3.825-4.022 2.21-2.351 4.73-5.1l2.89-3.144q.991-1.076 1.501-1.643.51-.595 1.048-1.246 1.502-1.813 2.38-3.088.906-1.275 1.473-2.521.991-2.21.991-4.42 0-3.512-2.068-5.495-2.096-2.011-5.75-2.011-5.07 0-11.388 3.768v-5.78q2.89-1.387 5.75-2.096 2.805-.708 5.553-.708 2.946 0 5.524.793 2.578.794 4.504 2.493 1.7 1.502 2.72 3.683 1.02 2.153 1.02 4.872 0 2.776-1.247 5.58-.623 1.417-1.615 2.777-.963 1.331-2.493 3.173-.821.963-1.954 2.238-1.133 1.274-2.635 2.89-1.076 1.16-2.011 2.095-.907.935-1.926 1.955-1.02.991-2.352 2.351-1.303 1.332-3.2 3.343h19.716v4.816H53.299z" aria-label="2" font-size="58.016" font-family="Hack" stroke-width=".453"/>
</svg>
