<svg width="500" height="500" viewBox="0 0 132.292 132.292" xmlns="http://www.w3.org/2000/svg">
    <path d="M66.144 1.038L117.87 101.22l-51.726 30.25-51.723-30.25z" fill="#8de6ff" stroke="#000" stroke-width="1.921" stroke-linecap="round" stroke-linejoin="bevel"/>
    <path d="M66.613 95.507q-3.88 0-6.459-1.36-2.577-1.388-4.249-3.965-1.784-2.777-2.634-6.8-.822-4.022-.822-9.206 0-11.444 4.108-16.997 4.136-5.552 11.898-5.552 1.161 0 2.237.113 1.105.114 2.012.312 1.133.227 2.124.567 1.02.34 1.927.708v5.269q-1.813-1.077-3.796-1.615-.992-.283-2.068-.396-1.077-.142-2.068-.142-5.524 0-8.3 4.08-2.805 4.135-2.805 12.067 1.36-2.833 3.768-4.363 2.436-1.501 5.75-1.501 5.836 0 9.207 3.768 3.4 3.767 3.4 10.566 0 6.912-3.428 10.68-3.428 3.767-9.802 3.767zm0-4.476q3.768 0 5.666-2.52 1.926-2.522 1.926-7.394 0-4.901-1.926-7.422-.992-1.303-2.436-1.898-1.445-.595-3.201-.595-1.983 0-3.428.708-1.445.68-2.408 1.898-.991 1.246-1.558 3.088-.538 1.813-.538 4.22 0 2.408.538 4.25.567 1.813 1.558 3.06.963 1.217 2.408 1.925 1.445.68 3.4.68zM85.94 95.45q-1.925 0-3.257-1.33-1.331-1.332-1.331-3.457 0-2.124 1.331-3.456 1.332-1.331 3.258-1.331t3.258 1.331q1.33 1.332 1.33 3.456 0 2.125-1.33 3.456-1.332 1.332-3.258 1.332z" style="-inkscape-font-specification:Hack" font-size="58.016" font-family="Hack"/>
</svg>
