<svg width="500" height="500" viewBox="0 0 132.292 132.292" xmlns="http://www.w3.org/2000/svg">
    <path d="M66.144 1.038L117.87 101.22l-51.726 30.25-51.723-30.25z" fill="#8de6ff" stroke="#000" stroke-width="1.921" stroke-linecap="round" stroke-linejoin="bevel"/>
    <path d="M63.851 95.507q-1.274 0-2.86-.113-1.559-.113-2.947-.34-1.445-.227-2.663-.567-1.218-.34-2.351-.793v-5.807q2.663 1.416 5.24 2.096 2.635.708 5.241.708 4.958 0 7.45-2.492 2.55-2.522 2.55-7.026 0-2.464-.708-4.22-.708-1.757-1.926-2.918-1.19-1.134-3.06-1.813-1.87-.68-4.447-.68-2.21 0-4.363.51-2.21.538-4.164 1.586V52.392h21.416v4.816H60.055v10.396q1.218-.453 2.465-.68 1.076-.198 2.493-.198 3.427 0 6.034 1.048 2.606 1.048 4.39 2.833 3.825 3.852 3.825 10.453 0 6.77-3.995 10.623-1.954 1.87-4.787 2.861-2.804.963-6.629.963z" aria-label="5" font-size="58.016" font-family="Hack" stroke-width=".453"/>
</svg>
